<?xml version="1.0" encoding="utf-8"?>
<svg version="1.1" x="0px" y="0px" viewBox="0 0 100 100" enable-background="new 0 0 90 90" xmlns="http://www.w3.org/2000/svg">
  <g transform="matrix(0.794702, 0, 0, 0.794702, 14.225411, 28.936357)">
    <path d="M26.5,70.3c0,0,1.7,1.7,4,4.4c2.1,2.5,2.4,6.3,0,8.9c-1.1,1.2-2.5,1.8-4,1.8c-1.4,0-2.9-0.6-4-1.8     c-2.4-2.6-2.1-6.3,0-8.9C24.8,72,26.5,70.3,26.5,70.3z" style="fill: rgb(208, 65, 65);"/>
    <path d="M38.8,70.3c0,0,1.7,1.7,4,4.4c2.1,2.5,2.4,6.3,0,8.9c-1.1,1.2-2.5,1.8-4,1.8c-1.4,0-2.9-0.6-4-1.8     c-2.4-2.6-2.1-6.3,0-8.9C37.1,72,38.8,70.3,38.8,70.3z" style="fill: rgb(208, 65, 65);"/>
    <path d="M51.2,70.3c0,0,1.7,1.7,4,4.4c2.1,2.5,2.4,6.3,0,8.9c-1.1,1.2-2.5,1.8-4,1.8c-1.4,0-2.9-0.6-4-1.8     c-2.4-2.6-2.1-6.3,0-8.9C49.5,72,51.2,70.3,51.2,70.3z" style="fill: rgb(208, 65, 65);"/>
    <path d="M63.5,70.3c0,0,1.7,1.7,4,4.4c2.1,2.5,2.4,6.3,0,8.9c-1.1,1.2-2.5,1.8-4,1.8c-1.4,0-2.9-0.6-4-1.8     c-2.4-2.6-2.1-6.3,0-8.9C61.9,72,63.5,70.3,63.5,70.3z" style="fill: rgb(208, 65, 65);"/>
  </g>
  <path d="M 69.691 28.279 L 72.736 28.279 C 72.98 27.548 73.224 26.817 73.224 25.965 C 73.224 22.676 70.544 19.996 67.255 19.996 C 63.967 19.996 61.287 22.676 61.287 25.965 C 61.287 26.817 61.409 27.548 61.774 28.279 L 65.063 28.279" style="fill: rgb(222, 222, 222);"/>
  <path d="M 65.063 28.279 C 64.454 27.67 64.088 26.939 64.088 25.965 C 64.088 24.138 65.55 22.676 67.377 22.676 C 69.204 22.676 70.666 24.138 70.666 25.965 C 70.666 26.817 70.3 27.67 69.691 28.279" style="fill: rgb(222, 222, 222);"/>
  <path d="M 35.445 26.818 L 95.25 26.94 C 97.686 26.94 99.513 28.888 99.513 31.324 C 99.513 33.76 97.564 35.709 95.128 35.709 L 91.352 35.709 L 91.352 72.128 C 91.352 78.097 86.48 83.091 80.39 83.091 L 19.61 83.091 C 13.642 83.091 8.648 78.218 8.648 72.128 L 8.648 35.709 L 4.872 35.709 C 2.436 35.709 0.487 33.517 0.487 31.081 C 0.487 28.645 2.436 26.696 4.872 26.696 L 17.661 26.696 L 35.445 26.818 Z" style="fill: rgb(0, 114, 185);"/>
  <path d="M 43.227 30.48 C 43.227 30.48 43.227 30.48 43.227 30.48 L 43.227 30.48 C 43.349 30.48 43.227 30.48 43.227 30.48 Z" style="fill: rgb(106, 106, 106);"/>
  <path d="M 31.047 30.48 L 32.508 30.48 C 32.387 30.114 32.265 29.627 32.143 29.262 C 31.899 29.749 31.534 30.114 31.047 30.48 Z" style="fill: rgb(106, 106, 106);"/>
  <g transform="matrix(1.218027, 0, 0, 1.218027, -4.763311, -0.823415)">
    <path d="M48.6,13.5l0.3-2.9c0.1-1.2-0.7-2.2-1.9-2.4s-2.2,0.7-2.4,1.9L44.4,13" style="fill: rgb(0, 114, 185);"/>
    <path d="M49.7,13.6l-2.1-0.3l0.3-2.9c0-0.3,0-0.6-0.2-0.8c-0.2-0.2-0.4-0.4-0.7-0.4c-0.3,0-0.6,0-0.8,0.2     c-0.2,0.2-0.4,0.4-0.4,0.7l-0.3,2.9l-2.1-0.3l0.3-2.9c0.1-0.9,0.5-1.6,1.2-2.1s1.5-0.8,2.4-0.7c0.9,0.1,1.6,0.5,2.1,1.2     c0.5,0.7,0.8,1.5,0.7,2.4L49.7,13.6z" style="fill: rgb(0, 114, 185);"/>
  </g>
  <g transform="matrix(1.218027, 0, 0, 1.218027, -4.763311, -0.823415)">
    <path d="M26.4,10.1L14.6,8.7C13.7,8.6,13,9.2,12.9,10s0.5,1.6,1.3,1.6L25.4,13C25.4,11.9,25.8,10.9,26.4,10.1z" style="fill: rgb(0, 114, 185);"/>
    <path d="M78.7,16.3l-37.5-4.5c0.9,0.9,1.5,2,1.8,3.2l35.4,4.2c0.1,0,0.1,0,0.2,0c0.7,0,1.4-0.6,1.5-1.3    C80.1,17.2,79.5,16.4,78.7,16.3z" style="fill: rgb(0, 114, 185);"/>
  </g>
  <g transform="matrix(1, 0, 0, 1, 0.79797, 6.401586)">
    <path d="M 83.056 50.212 L 83.056 35.108 C 83.056 33.403 81.595 31.941 79.89 31.941 L 79.524 31.941 C 77.819 31.941 76.357 33.403 76.357 35.108 L 76.357 50.09 C 76.357 51.795 77.819 53.257 79.524 53.257 L 79.89 53.257 C 81.595 53.257 83.056 51.917 83.056 50.212 Z" style="fill: rgb(0, 142, 231);"/>
    <path d="M 79.646 34.621 L 80.011 34.621 C 80.255 34.621 80.499 34.865 80.499 35.108 L 80.499 50.09 C 80.499 50.334 80.255 50.577 80.011 50.577 L 79.646 50.577 C 79.402 50.577 79.159 50.334 79.159 50.09 L 79.159 34.986 C 79.159 34.743 79.402 34.499 79.646 34.499 L 79.646 34.621 Z" style="fill: rgb(0, 114, 185);"/>
  </g>
  <g transform="matrix(1, 0, 0, 1, 2.320469, 6.401586)">
    <path d="M 82.569 59.469 C 82.569 57.033 80.62 55.084 78.184 55.084 C 75.748 55.084 73.799 57.033 73.799 59.469 C 73.799 61.905 75.748 63.854 78.184 63.854 C 80.62 63.854 82.569 61.905 82.569 59.469 Z" style="fill: rgb(0, 142, 231);"/>
    <path d="M 80.011 59.469 C 80.011 60.443 79.159 61.296 78.184 61.296 C 77.21 61.296 76.357 60.443 76.357 59.469 C 76.357 58.494 77.21 57.642 78.184 57.642 C 79.159 57.642 80.011 58.494 80.011 59.469 Z" style="fill: rgb(0, 114, 185);"/>
  </g>
  <path d="M 28.241 36.185 C 28.241 35.307 28.072 34.472 27.765 33.709 C 29.155 33.342 30.444 32.705 31.53 31.8 C 32.748 34.114 35.062 35.576 37.742 35.576 C 40.178 35.576 42.371 34.358 43.589 32.409 C 44.685 33.018 45.903 33.262 47.121 33.262 C 51.14 33.262 54.429 29.973 54.429 25.954 C 54.551 22.543 52.237 19.62 48.948 18.889 C 48.704 13.773 44.198 9.632 38.96 9.997 C 37.377 8.292 35.184 7.196 32.87 7.196 C 28.485 7.196 24.953 10.606 24.831 14.991 C 19.837 15.357 15.939 19.498 15.939 24.492 C 15.939 26.811 16.774 28.963 18.166 30.603 C 16.312 31.761 15.087 33.82 15.087 36.185 C 15.087 39.839 18.01 42.762 21.664 42.762 C 25.318 42.762 28.241 39.839 28.241 36.185 Z" style="fill: rgb(222, 222, 222);"/>
  <path d="M 65.359 12.94 C 62.679 12.94 60.487 10.747 60.487 8.068 C 60.487 5.388 62.679 3.196 65.359 3.196 C 68.039 3.196 70.231 5.388 70.231 8.068 C 70.231 10.747 68.039 12.94 65.359 12.94 Z" style="fill: rgb(222, 222, 222);"/>
  <path d="M 65.359 5.875 C 64.141 5.875 63.167 6.85 63.167 8.068 C 63.167 9.286 64.141 10.26 65.359 10.26 C 66.577 10.26 67.551 9.286 67.551 8.068 C 67.551 6.85 66.577 5.875 65.359 5.875 Z" style="fill: rgb(222, 222, 222);"/>
</svg>